<svg width="32" height="32" viewBox="0 0 32 32" fill="none" xmlns="http://www.w3.org/2000/svg">
<path d="M9.86444 24.0276C11.5753 27.9754 15.9921 29.1206 19.8697 26.8303L25.6384 21.1449C27.5295 19.4559 28.9338 17.5023 29.8513 15.2842C31.2277 6.64916 22.6941 2.56719 18.8165 6.64916L13.3228 12.4824C12.9638 12.985 12.5491 13.0524 12.0786 12.6844L10.7504 10.9736C9.86444 9.70719 5.56753 10.34 7.24322 14.6911L10.642 18.4772C11.3843 19.1108 12.5804 20.336 14.0048 18.7067L21.0551 11.3106C24.5493 8.66953 26.1166 13.196 24.6211 14.8397C20.0406 20.1929 17.244 23.0761 16.2312 23.4894C15.3811 24.4454 11.9228 25.3077 9.86444 24.0276ZM9.86444 24.0276C6.77632 21.8634 4.40231 19.4026 2.74242 16.6452C-0.762597 9.00653 8.95552 0.102336 14.9274 8.21131L15.9928 9.73386" stroke="url(#paint0_linear_85_2)" stroke-width="2" stroke-linecap="round" stroke-linejoin="round"/>
<defs>
<linearGradient id="paint0_linear_85_2" x1="16" y1="5" x2="16" y2="28" gradientUnits="userSpaceOnUse">
<stop stop-color="white"/>
<stop offset="1" stop-color="#AFE3FF"/>
</linearGradient>
</defs>
</svg>
